# xmcd
# 
# Track frame offsets:
#     182
#     17767
#     44737
#     57577
#     71362
#     91797
#     102627
#     153447
#     160107
# 
# Disc length: 2467
# 
# Revision: 2
# Processed by: cddbd v1.5.2PL0 Copyright (c) Steve Scherf et al.
# Submitted via: fre:ac v1.0.31
# 
DISCID=7309a109
DTITLE=Frank Zappa and the Mothers with Captain Beefheart - Bongo Fury
DYEAR=1975
DGENRE=Rock
TTITLE0=Debra Kadabra
TTITLE1=Carolina Hard-Core Ecstasy
TTITLE2=Sam with the Showing Scalp Flat Top
TTITLE3=Poofter's Froth Wyoming Plans Ahead
TTITLE4=200 Years Old
TTITLE5=Cucamonga
TTITLE6=Advance Romance
TTITLE7=Man with the Woman Head
TTITLE8=Muffin Man
EXTD=YEAR: 1975
EXTT0=
EXTT1=
EXTT2=
EXTT3=
EXTT4=
EXTT5=
EXTT6=
EXTT7=
EXTT8=
PLAYORDER=
